<?xml version="1.0" encoding="UTF-8"?>
<svg width="378px" height="90px" viewBox="0 0 378 90" version="1.1" xmlns="http://www.w3.org/2000/svg" xmlns:xlink="http://www.w3.org/1999/xlink">
    <!-- Generator: Sketch 50.2 (55047) - http://www.bohemiancoding.com/sketch -->
    <title>Group 2</title>
    <desc>Created with Sketch.</desc>
    <defs></defs>
    <g id="Page-1" stroke="none" stroke-width="1" fill="none" fill-rule="evenodd">
        <g id="Desktop-HD" transform="translate(-531.000000, -467.000000)" fill="#FFFFFF">
            <g id="Group-2" transform="translate(530.850775, 466.726693)">
                <path d="M17.5731176,61.4461744 L17.5731176,67.7488874 L22.6453531,67.7488874 L11.4347407,79.1422976 L0.224128321,67.7488874 L5.29636379,67.7488874 L5.29636379,0.681233381 C12.0766277,0.681233381 17.5731176,6.17772328 17.5731176,12.9579872 L17.5731176,37.766964 C22.0405939,34.7370472 27.4318602,32.9669123 33.2365637,32.9669123 C48.66751,32.9669123 61.1767636,45.4761659 61.1767636,60.9071122 C61.1767636,76.3380585 48.66751,88.8473121 33.2365637,88.8473121 C29.9813021,88.8473121 27.3423912,86.2084012 27.3423912,82.9531396 C27.3423912,79.697878 29.9813021,77.0589671 33.2365637,77.0589671 C33.3202565,77.0589671 33.4035419,77.0607114 33.4863855,77.0641657 C42.0194805,76.9307024 48.8957067,69.9718531 48.8957067,61.4069752 C48.8957067,52.7586693 41.8848696,45.7478322 33.2365637,45.7478322 C24.5882578,45.7478322 17.5774207,52.7586693 17.5774207,61.4069752 C17.5774207,61.4200453 17.5774367,61.4331117 17.5774687,61.4461744 L17.5731176,61.4461744 Z" id="Combined-Shape"></path>
                <path d="M105.879841,73.5756462 L121.633654,73.5756462 C117.004378,82.6071683 107.601616,88.7878808 96.7552709,88.7878808 C81.3252287,88.7878808 68.8167081,76.2793601 68.8167081,60.8493179 C68.8167081,45.4192757 81.3252287,32.9107551 96.7552709,32.9107551 C112.185313,32.9107551 124.693834,45.4192757 124.693834,60.8493179 C124.693834,62.9584163 124.46013,65.0129303 124.017206,66.9883764 L103.744146,66.9883764 L82.3463093,66.9883764 C84.7337816,72.5848298 90.2864269,76.5075434 96.7552709,76.5075434 C100.159871,76.5075434 103.310684,75.4209541 105.879841,73.5756462 Z M81.6758754,56.6164842 L111.834666,56.6164842 C109.988255,50.0250657 103.93628,45.1910924 96.7552709,45.1910924 C89.5742614,45.1910924 83.5222868,50.0250657 81.6758754,56.6164842 Z" id="Combined-Shape"></path>
                <path d="M177.630315,39.0386943 C179.766314,35.4206578 183.705179,32.9936372 188.210904,32.9936372 L188.210904,82.7317045 C188.210904,86.1222129 185.462354,88.870763 182.071845,88.870763 C179.110852,88.870763 176.639471,86.7744853 176.060832,83.9850606 C171.569159,87.0672354 166.131368,88.870763 160.272341,88.870763 C144.842299,88.870763 132.333778,76.3622423 132.333778,60.9322001 C132.333778,45.5021579 144.842299,32.9936372 160.272341,32.9936372 C166.831816,32.9936372 172.863317,35.2541652 177.630315,39.0386943 Z M160.272341,76.5904256 C168.92014,76.5904256 175.930567,69.5799993 175.930567,60.9322001 C175.930567,52.284401 168.92014,45.2739746 160.272341,45.2739746 C151.624542,45.2739746 144.614116,52.284401 144.614116,60.9322001 C144.614116,69.5799993 151.624542,76.5904256 160.272341,76.5904256 Z" id="Combined-Shape-Copy-8"></path>
                <path d="M251.051347,54.7102594 L238.198373,54.7102594 C235.8109,49.1138061 230.258255,45.1910924 223.789411,45.1910924 C215.141612,45.1910924 208.131186,52.2015188 208.131186,60.8493179 C208.131186,69.4971171 215.141612,76.5075434 223.789411,76.5075434 C230.258255,76.5075434 235.8109,72.5848298 238.198373,66.9883764 L251.051347,66.9883764 C248.253866,79.4651806 237.110355,88.7878808 223.789411,88.7878808 C208.359369,88.7878808 195.850848,76.2793601 195.850848,60.8493179 C195.850848,45.4192757 208.359369,32.9107551 223.789411,32.9107551 C237.110355,32.9107551 248.253866,42.2334552 251.051347,54.7102594 Z" id="Combined-Shape-Copy-9"></path>
                <path d="M286.629854,88.870763 C271.199812,88.870763 258.691291,76.3622423 258.691291,60.9322001 C258.691291,45.5021579 271.199812,32.9936372 286.629854,32.9936372 C302.059896,32.9936372 314.568417,45.5021579 314.568417,60.9322001 C314.568417,76.3622423 302.059896,88.870763 286.629854,88.870763 Z M286.629854,76.5904256 C295.277653,76.5904256 302.288079,69.5799993 302.288079,60.9322001 C302.288079,52.284401 295.277653,45.2739746 286.629854,45.2739746 C277.982055,45.2739746 270.971628,52.284401 270.971628,60.9322001 C270.971628,69.5799993 277.982055,76.5904256 286.629854,76.5904256 Z" id="o-copy"></path>
                <path d="M332.802977,39.001686 C337.568155,35.2233372 343.59485,32.9669123 350.148561,32.9669123 C365.579508,32.9669123 378.088761,45.4761659 378.088761,60.9071122 C378.088761,61.0872026 378.087057,61.2668951 378.083665,61.4461744 L365.80766,61.4461744 C365.807688,61.4331117 365.807704,61.4200453 365.807704,61.4069752 C365.807704,52.7586693 358.796867,45.7478322 350.148561,45.7478322 C341.844701,45.7478322 335.050472,52.2113337 334.522442,60.3817701 L334.522442,82.7317045 C334.522442,86.1222129 331.773892,88.870763 328.383384,88.870763 C324.992875,88.870763 322.244325,86.1222129 322.244325,82.7317045 L322.244325,61.4461744 L322.213458,61.4461744 C322.210065,61.2668951 322.208361,61.0872026 322.208361,60.9071122 C322.208361,60.4275108 322.220445,59.9507318 322.244325,59.477063 L322.244325,32.9936372 C326.73467,32.9936372 330.662018,35.404117 332.802977,39.001686 Z M365.831255,61.4461744 L378.107506,61.4461744 L378.107506,83.4670896 C378.107506,86.8570826 375.359373,89.6052149 371.96938,89.6052149 C368.579387,89.6052149 365.831255,86.8570826 365.831255,83.4670896 L365.831255,61.4461744 Z" id="Combined-Shape"></path>
            </g>
        </g>
    </g>
</svg>