<svg xmlns="http://www.w3.org/2000/svg" width="235" height="235" viewBox="0 0 235 235">
    <g fill="none" fill-rule="evenodd">
        <g stroke="#4262FF" stroke-width="2">
            <path d="M109.466 169.676l-18.83 18.83a5.052 5.052 0 1 1-7.146-7.145l18.83-18.83a26.41 26.41 0 0 1-4.54-14.848c0-14.655 11.88-26.534 26.534-26.534 14.654 0 26.534 11.88 26.534 26.534 0 14.654-11.88 26.533-26.534 26.533a26.41 26.41 0 0 1-14.848-4.54zm-1.993-21.993c0 9.3 7.54 16.84 16.841 16.84 9.3 0 16.84-7.54 16.84-16.84 0-9.301-7.54-16.841-16.84-16.841-9.301 0-16.84 7.54-16.84 16.84z"/>
            <path stroke-linecap="round" d="M114.214 139.995c4.663-4.541 10.542-5.515 17.636-2.922"/>
        </g>
        <path stroke="#4262FF" stroke-dasharray="6" stroke-linecap="round" stroke-width="2" d="M113.87 121.28c-16.228-11.557-15.218-20.801 3.031-27.73 18.249-6.93 18.249-13.42 0-19.472"/>
        <path fill="#4262FF" d="M128.937 45.585L116.5 72.235l-12.437-26.65a13.976 13.976 0 0 1-1.6-6.515c0-7.752 6.285-14.037 14.037-14.037 7.752 0 14.037 6.285 14.037 14.037 0 2.352-.578 4.568-1.6 6.515zm-12.437.321a6.836 6.836 0 1 0 0-13.672 6.836 6.836 0 0 0 0 13.672z"/>
    </g>
</svg>
