<svg xmlns="http://www.w3.org/2000/svg" width="235" height="235" viewBox="0 0 235 235">
    <g fill="none" fill-rule="evenodd">
        <g transform="translate(81.164 55.643)">
            <rect width="70.239" height="120.331" x="1.716" y="1.678" stroke="#4262FF" stroke-width="2" rx="4"/>
            <circle cx="36.836" cy="108.137" r="5.123" fill="#4262FF"/>
            <path fill="#4262FF" d="M21.468 2.085a6.53 6.53 0 0 0 6.53 6.53h17.676a6.53 6.53 0 0 0 6.53-6.53H21.468z"/>
        </g>
        <path fill="#4262FF" d="M128.7 94.571L118 117.5l-10.7-22.929a12.024 12.024 0 0 1-1.377-5.605c0-6.67 5.407-12.077 12.077-12.077s12.077 5.407 12.077 12.077c0 2.023-.498 3.93-1.377 5.605zm-10.7.277a5.882 5.882 0 1 0 0-11.764 5.882 5.882 0 0 0 0 11.764z"/>
        <path stroke="#4262FF" stroke-dasharray="6" stroke-linecap="round" stroke-width="2" d="M115.37 139.71c-16.228-5.438-15.218-9.787 3.031-13.048 18.249-3.26 18.249-6.314 0-9.162"/>
    </g>
</svg>
